<?xml version="1.0" encoding="UTF-8" standalone="no"?>
<svg id="svg4171" xmlns:rdf="http://www.w3.org/1999/02/22-rdf-syntax-ns#" xmlns="http://www.w3.org/2000/svg" height="994.76" viewBox="0 0 849.79828 994.75873" width="849.8" version="1.1" xmlns:cc="http://creativecommons.org/ns#" xmlns:dc="http://purl.org/dc/elements/1.1/">
 <g fill="#ec2127">
  <path id="bottom-left" d="m389.59 965.85c-18.906-9.8172-55.469-28.725-81.25-42.018-61.975-31.955-78.245-40.36-116.88-60.38-17.875-9.2638-44.312-22.906-58.75-30.316-14.43-7.41-32.994-17-41.244-21.32-8.25-4.31-29.344-15.2-46.875-24.2-28.034-14.38-37.5-20.36-37.5-23.67 0-0.79 7.6688-5.6968 19.848-12.699 6.0077-3.4542 19.439-11.527 27.027-16.245 28.208-17.538 132.09-78.874 133.02-78.536 0.62628 0.22877 20.029 25.447 43.117 56.041s62.091 82.248 86.672 114.79c77.815 103.01 111.73 148.18 112.92 150.4 0.87378 1.6327 0.47595 2.6386-1.6256 4.1106-1.5304 1.0719-3.0792 1.9375-3.4419 1.9235-0.36265-0.014-16.128-8.0577-35.034-17.875z"/>
  <path id="bottom-right" d="m487.95 980.26c-2.4067-2.6594-2.96-1.6513 12.964-23.622 5.8862-8.1217 20.831-28.829 33.21-46.017 46.596-64.696 117.89-163.53 137.95-191.25 11.446-15.812 27.188-37.638 34.983-48.502 12.842-17.897 18.66-24.623 21.298-24.623 1.15 0 103.64 115.28 106.18 119.42 1.0018 1.6384 1.5642 3.2232 1.25 3.5218-0.49644 0.47168-149.97 93.118-286.2 177.39-24.406 15.098-45.5 28.447-46.875 29.664-2.7452 2.4296-9.8512 6.255-11.619 6.255-0.61509 0-2.029-1.0063-3.1421-2.2362z"/>
  <path id="bottom" d="m425.54 952.07c-29.87-39.62-66.88-88.63-130.75-173.11-86.21-114.03-93.86-124.44-92.56-126.01 2.6839-3.2339 10.138-4.0127 45.483-4.7518 19.938-0.41691 41.875-1.04 48.75-1.3847 6.875-0.34467 43.156-1.4482 80.625-2.4522 37.469-1.0041 76.844-2.1392 87.5-2.5226 18.554-0.66751 151.89-4.5924 216.41-6.3703l30.785-0.8483 2.1199 3.2354 2.1199 3.2354-42.157 58.515c-23.186 32.183-45.653 63.297-49.925 69.14-4.2729 5.8438-23.77 32.844-43.327 60-50.336 69.894-48.636 67.536-82.457 114.38-16.878 23.375-31.431 43.7-32.338 45.167-0.90786 1.4668-3.1031 3.5219-4.8784 4.5669l-3.2278 1.9-32.18-42.692z"/>
  <path id="right" d="m788.34 696.06c-29.219-33.018-54.077-61.532-55.241-63.364-2.0668-3.253-1.8138-4.3986 10.81-48.95 7.1092-25.09 15.847-56.025 19.417-68.744 3.5699-12.719 11.731-41.688 18.136-64.375 6.405-22.688 16.545-58.688 22.534-80 22.801-81.143 22.749-80.977 25.828-83.324 2.7904-2.1273 2.9628-2.1114 4.929 0.45579 1.5682 2.0475 2.218 6.8584 2.8214 20.889 0.71685 16.67 3.0896 114.44 2.9905 123.23-0.0232 2.0625 0.58121 22.594 1.3433 45.625 1.204 36.387 3.6394 126.57 5.8058 215 0.36213 14.781 0.97915 34.498 1.3712 43.815l0.7127 16.94-3.2875 1.4979c-1.8081 0.82382-3.6829 1.4618-4.1661 1.4178-0.48328-0.044-24.785-27.095-54.004-60.113z"/>
  <path id="left" d="m1.5579 747.25c-1.7224-2.46-1.8476-26.28-1.1899-226.56 0.734-223.5 0.7386-223.82 3.2932-226.04 1.407-1.2257 3.1762-2.055 3.9315-1.8429 1.4289 0.4013 20.915 38.984 80.046 158.49 19.208 38.82 48.317 97.522 64.688 130.45 16.37 32.928 29.751 60.49 29.735 61.25-0.0161 0.7599-10.844 7.8281-24.062 15.707-13.218 7.879-40.346 24.122-60.283 36.095s-38.004 22.773-40.149 23.999c-2.1442 1.226-14.721 8.7489-27.949 16.718-13.229 7.95-24.521 14.47-25.095 14.47-0.57343 0-1.9088-1.2366-2.9674-2.7481z"/>
  <path id="top-left" d="m37.803 244.33c-2.1152-3.2282-2.096-3.38 0.68212-5.3896 3.9758-2.8759 25.429-16.814 32.981-21.427 3.4375-2.1 12.156-7.7319 19.375-12.515 7.2188-4.7835 15.938-10.412 19.375-12.508 3.4375-2.0958 12.156-7.7045 19.375-12.464 7.2188-4.7592 15.938-10.385 19.375-12.501 3.4375-2.1163 15.104-9.5976 25.925-16.625 10.821-7.0276 36.696-23.744 57.5-37.147s43.014-27.747 49.356-31.875c6.35-4.118 20.28-13.12 30.97-19.995 18.11-11.647 24.11-15.515 55.63-35.861 6.53-4.216 18.22-11.794 25.97-16.84 7.75-5.0457 14.9-9.174 15.89-9.174 0.98941 0 2.4727 1.2589 3.2961 2.7976 1.1522 2.1529 13.103 111.29 20.436 186.64l0.8576 8.8109-4.1641 2.1186c-2.8532 1.4517-16.363 3.5163-42.914 6.5585-21.312 2.4419-52.812 6.0787-70 8.0817s-84.688 9.8554-150 17.45c-65.312 7.5944-120.77 14.121-123.24 14.503-3.8735 0.5994-4.7934 0.23715-6.6697-2.6264z"/>
  <path id="top-right" d="m766.47 219.29c-29.754-2.2577-95.338-7.0318-187.5-13.649-138.88-9.9712-129.7-9.1315-132.2-12.097-1.2118-1.4378-2.4676-3.8088-2.7905-5.2687-0.32294-1.4599-3.4056-30.217-6.8504-63.904-3.4448-33.688-7.4729-72.66-8.9513-86.606-2.6348-24.855-2.6412-25.392-0.32119-27.148 1.3017-0.98541 3.1091-1.8095 4.0164-1.8314 0.90727-0.02187 15.814 7.7568 33.125 17.286 35.948 19.788 122.46 67.197 134.6 73.766 4.4688 2.4171 22.512 12.301 40.095 21.964 17.584 9.6632 61.271 33.601 97.084 53.194 68.258 37.345 72.57 40.204 67.005 44.421-2.748 2.082-8.4498 2.0626-37.309-0.12724z"/>
  <path id="middle-right" d="m716.81 615.94c-1.782-1.3867-10.664-14.693-35.423-53.066-4.0822-6.327-11.916-18.421-17.409-26.875-44.442-68.406-54.686-84.183-60.676-93.444-3.7607-5.815-11.9-18.328-18.088-27.806-6.1875-9.4782-14.597-22.439-18.689-28.802-4.0913-6.363-13.67-21.132-21.286-32.819-7.6161-11.688-17.769-27.306-22.561-34.708-4.7926-7.4021-18.657-28.777-30.81-47.5s-25.862-39.894-30.464-47.047l-8.3677-13.005 2.964-2.3193c2.4105-1.8862 4.3646-2.193 10.464-1.643 4.125 0.37197 27.188 2.0726 51.25 3.7792s59.169 4.2329 78.014 5.614 46.408 3.3539 61.25 4.384 37.392 2.6779 50.111 3.6616c12.719 0.98377 44.781 3.2786 71.25 5.0996 44.364 3.0521 48.296 3.5072 50.312 5.8237 1.2031 1.3821 2.1875 3.2758 2.1875 4.2082 0 0.93246-3.6934 14.792-8.2077 30.799-4.5142 16.007-10.742 38.104-13.84 49.104-3.0975 11-8.6518 30.688-12.343 43.75-3.6911 13.062-20.508 72.688-37.371 132.5-38.454 136.39-33.995 121.88-37.424 121.88-1.5607 0-3.7412-0.70313-4.8455-1.5625z"/>
  <path id="middle-left" d="m186.05 623.44c-1.38-2.24-12.05-23.47-23.71-47.19-11.67-23.72-39.63-80.25-62.13-125.63-72.879-146.92-91.888-185.83-91.275-186.82 1.916-3.1 3.502-3.32 126.28-17.56 11.688-1.3553 40.375-4.7117 63.75-7.4586 48.995-5.7578 107.22-12.544 145-16.9 14.438-1.6646 38.625-4.4818 53.75-6.2605l27.5-3.234 2.2422 2.7616c1.2332 1.5189 1.9144 3.6158 1.5138 4.6599-0.7853 2.0465-15.938 28.547-40.847 71.44-8.5841 14.781-26.478 45.719-39.765 68.75s-29.076 50.312-35.089 60.625c-10.533 18.066-54.035 93.359-96.054 166.25-18.219 31.604-24.346 40.625-27.594 40.625-0.5931 0-2.203-1.8281-3.5775-4.0625z"/>
  <path id="middle" d="m204.11 637.32c-1.1079-1.5817-2.0143-3.308-2.0143-3.8361 0-0.9385 7.7161-14.422 55.645-97.234 12.932-22.344 31.641-54.688 41.576-71.875 9.935-17.188 23.437-40.531 30.005-51.875 6.5675-11.344 21.351-36.938 32.852-56.875 65.851-114.16 75.849-130.97 79.053-132.91 3.897-2.3646 3.331-2.9097 13.403 12.91 6.6032 10.371 8.9584 14.003 38.091 58.739 18.621 28.594 27.048 41.571 39.375 60.636 27.427 42.419 101.31 156.21 122.33 188.4 5.9357 9.0914 15.573 23.954 21.417 33.027 5.8438 9.0736 14.7 22.729 19.679 30.345 8.8752 13.574 9.0054 13.889 6.5735 15.914-3.1487 2.6226-9.3692 2.9738-96.253 5.4344-37.469 1.0612-95.969 2.7579-130 3.7705s-100.69 2.9446-148.12 4.2934c-47.438 1.3488-94.203 2.8018-103.92 3.229-17.44 0.76642-17.7 0.73868-19.688-2.0992z"/>
 </g>
 <path id="heart" fill="#fff" d="m468.05 579.77c21.032-17.127 45.714-41.673 56.701-56.39 18.876-25.284 29.88-53.672 29.819-76.928-0.0631-24.22-11.366-46.047-28.283-54.618-6.5205-3.3038-8.5496-3.7065-18.57-3.6851-9.7746 0.0209-12.097 0.46728-17.705 3.4042-13.535 7.0873-30.183 26.303-35.209 40.638-1.2661 3.6115-2.6157 6.88-2.9991 7.2634s-1.7182-1.9765-2.9661-5.2442c-3.523-9.2248-13.073-22.917-21.076-30.215-21.306-19.433-43.79-19.67-62.11-0.65519-11.155 11.579-16.072 25.672-16.042 45.985 0.0506 34.366 16.496 66.007 53.675 103.27 13.375 13.405 45.202 41.156 47.201 41.156 0.21797 0 8.1216-6.2907 17.564-13.979z"/>
</svg>
