<?xml version="1.0" encoding="UTF-8" standalone="no"?>
<!-- Created with Inkscape (http://www.inkscape.org/) -->

<svg
   xmlns:dc="http://purl.org/dc/elements/1.1/"
   xmlns:cc="http://creativecommons.org/ns#"
   xmlns:rdf="http://www.w3.org/1999/02/22-rdf-syntax-ns#"
   xmlns:svg="http://www.w3.org/2000/svg"
   xmlns="http://www.w3.org/2000/svg"
   xmlns:sodipodi="http://sodipodi.sourceforge.net/DTD/sodipodi-0.dtd"
   xmlns:inkscape="http://www.inkscape.org/namespaces/inkscape"
   id="svg4171"
   version="1.1"
   inkscape:version="0.91 r13725"
   width="873.75"
   height="1000"
   viewBox="0 0 873.75 1000"
   sodipodi:docname="critrolemoments.svg">
  <metadata
     id="metadata4177">
    <rdf:RDF>
      <cc:Work
         rdf:about="">
        <dc:format>image/svg+xml</dc:format>
        <dc:type
           rdf:resource="http://purl.org/dc/dcmitype/StillImage" />
        <dc:title></dc:title>
      </cc:Work>
    </rdf:RDF>
  </metadata>
  <defs
     id="defs4175" />
  <sodipodi:namedview
     pagecolor="#ffffff"
     bordercolor="#666666"
     borderopacity="1"
     objecttolerance="10"
     gridtolerance="10"
     guidetolerance="10"
     inkscape:pageopacity="0"
     inkscape:pageshadow="2"
     inkscape:window-width="2560"
     inkscape:window-height="1416"
     id="namedview4173"
     showgrid="false"
     inkscape:zoom="0.6395"
     inkscape:cx="240.60344"
     inkscape:cy="543.37054"
     inkscape:window-x="0"
     inkscape:window-y="24"
     inkscape:window-maximized="1"
     inkscape:current-layer="svg4171" />
  <path
     style="fill:#ec2127;stroke:none;stroke-opacity:1;fill-opacity:1"
     d="M 437.504,955.19431 C 407.64004,915.5748 370.62757,866.57109 306.75983,782.09182 220.54629,668.05524 212.90128,657.64719 214.20125,656.08083 c 2.68393,-3.23394 10.13831,-4.01274 45.48258,-4.7518 19.9375,-0.41691 41.875,-1.04001 48.75,-1.38466 6.875,-0.34467 43.15625,-1.44817 80.625,-2.45224 37.46875,-1.00408 76.84375,-2.13925 87.5,-2.52263 18.55423,-0.66751 151.89096,-4.59242 216.41032,-6.37028 l 30.78534,-0.8483 2.11994,3.23543 2.11994,3.23544 -42.15656,58.51533 c -23.18612,32.18342 -45.65257,63.29657 -49.92544,69.14032 -4.27289,5.84375 -23.77024,32.84375 -43.32744,60 -50.33591,69.89418 -48.63575,67.53589 -82.45657,114.375 -16.87825,23.375 -31.43052,43.7001 -32.33838,45.16689 -0.90786,1.4668 -3.10314,3.52188 -4.8784,4.56688 l -3.22775,1.89999 -32.17983,-42.69189 z m -35.94517,13.78272 c -18.90625,-9.81722 -55.46875,-28.72549 -81.25,-42.01839 -61.97543,-31.95474 -78.24501,-40.35995 -116.875,-60.38004 -17.875,-9.26376 -44.3125,-22.90609 -58.75,-30.31627 -14.4375,-7.41019 -33,-17.00454 -41.25,-21.32078 -8.249996,-4.31623 -29.343746,-15.20744 -46.874996,-24.20266 -28.03392,-14.3841 -37.5,-20.35945 -37.5,-23.67144 0,-0.79 7.66884,-5.69678 19.8478,-12.6993 6.00771,-3.45423 19.43854,-11.52714 27.0272,-16.24531 28.20816,-17.53811 132.093466,-78.87405 133.017856,-78.53636 0.62628,0.22877 20.02911,25.44721 43.11743,56.04096 23.08832,30.59375 62.0906,82.24769 86.67174,114.78654 77.81472,103.00586 111.72778,148.17644 112.91988,150.40389 0.87378,1.63266 0.47595,2.63859 -1.62565,4.11061 -1.53038,1.07192 -3.07923,1.9375 -3.4419,1.9235 -0.36265,-0.014 -16.12811,-8.05774 -35.03436,-17.87495 z m 98.36375,14.41422 c -2.40674,-2.65941 -2.95996,-1.65133 12.96354,-23.62211 5.88625,-8.12169 20.8306,-28.8292 33.20967,-46.0167 46.59618,-64.69566 117.8887,-163.53256 137.95148,-191.25 11.44559,-15.8125 27.18816,-37.6385 34.98349,-48.50222 12.84226,-17.89723 18.65977,-24.62278 21.29839,-24.62278 1.14997,0 103.644,115.27874 106.17604,119.42001 1.00175,1.63842 1.56425,3.22323 1.25,3.52182 -0.49644,0.47168 -149.96968,93.11785 -286.19636,177.38957 -24.40625,15.09804 -45.5,28.44665 -46.875,29.66358 -2.74525,2.42964 -9.85119,6.25502 -11.61919,6.25502 -0.61509,0 -2.02901,-1.00629 -3.14206,-2.23619 z M 800.30883,699.18473 c -29.21875,-33.0179 -54.07732,-61.5315 -55.24128,-63.36355 -2.06675,-3.25305 -1.81378,-4.39857 10.80963,-48.94988 7.10925,-25.09037 15.84676,-56.02511 19.41669,-68.74386 3.56994,-12.71875 11.73121,-41.6875 18.13618,-64.375 6.40497,-22.6875 16.54519,-58.6875 22.53384,-80 22.80063,-81.14328 22.74903,-80.97681 25.82839,-83.3244 2.7904,-2.1273 2.96283,-2.11136 4.92904,0.45579 1.56825,2.04753 2.21802,6.8584 2.82141,20.8894 0.71685,16.66976 3.08959,114.4431 2.99049,123.22921 -0.0232,2.0625 0.58121,22.59375 1.34326,45.625 1.20399,36.38725 3.63935,126.57362 5.80579,215 0.36213,14.78125 0.97915,34.49784 1.37115,43.81464 l 0.7127,16.93962 -3.28747,1.49788 c -1.8081,0.82382 -3.68286,1.46182 -4.16613,1.41778 -0.48328,-0.044 -24.78494,-27.09473 -54.00369,-60.11263 z m -786.783086,51.1946 c -1.72243,-2.4591 -1.84755,-26.28498 -1.18986,-226.5625 0.73395,-223.49884 0.7386,-223.81753 3.2932,-226.04298 1.40701,-1.22572 3.17618,-2.05503 3.93148,-1.84291 1.42889,0.4013 20.91541,38.98429 80.04635,158.49045 19.207696,38.81957 48.317066,97.52181 64.687506,130.44941 16.37042,32.9276 29.75123,60.4901 29.73512,61.25 -0.0161,0.7599 -10.84422,7.82809 -24.0625,15.70709 -13.21826,7.879 -40.34571,24.12175 -60.28321,36.09499 -19.937496,11.97325 -38.004376,22.77264 -40.148626,23.99865 -2.14424,1.22602 -14.7213,8.7489 -27.94902,16.71751 -13.22772,7.96863 -24.51956,14.4884 -25.09299,14.4884 -0.57343,0 -1.90878,-1.23665 -2.96745,-2.74811 z M 216.07317,640.44704 c -1.10789,-1.58172 -2.01434,-3.30796 -2.01434,-3.83609 0,-0.9385 7.71612,-14.42154 55.6452,-97.23351 12.93189,-22.34375 31.64119,-54.6875 41.57621,-71.875 9.93503,-17.1875 23.43708,-40.53125 30.00456,-51.875 6.56749,-11.34375 21.35074,-36.9375 32.85168,-56.875 65.851,-114.15629 75.84896,-130.96555 79.05322,-132.90978 3.89699,-2.36456 3.33103,-2.9097 13.40324,12.90978 6.60324,10.37108 8.95835,14.0028 38.09089,58.73867 18.62075,28.59399 27.04763,41.57114 39.375,60.63633 27.42749,42.41864 101.31229,156.20855 122.33289,188.40475 5.93566,9.09136 15.57336,23.95358 21.41711,33.02714 5.84375,9.07356 14.69951,22.72892 19.67949,30.34525 8.87519,13.57365 9.00535,13.88879 6.57348,15.91432 -3.14867,2.6226 -9.36917,2.9738 -96.25297,5.43444 -37.46875,1.06116 -95.96875,2.75789 -130,3.7705 -34.03125,1.01261 -100.6875,2.94465 -148.125,4.29341 -47.4375,1.34877 -94.20293,2.8018 -103.92316,3.22898 -17.43968,0.76642 -17.69978,0.73868 -19.6875,-2.09919 z m 263.94341,-57.54896 c 21.03209,-17.12651 45.71425,-41.67322 56.7013,-56.39013 18.87621,-25.28425 29.87986,-53.67156 29.81925,-76.92797 -0.0631,-24.2196 -11.36585,-46.04678 -28.28295,-54.61843 -6.5205,-3.30384 -8.54957,-3.70649 -18.57035,-3.68512 -9.77461,0.0209 -12.09659,0.46728 -17.70535,3.40425 -13.53469,7.0873 -30.1832,26.30312 -35.2087,40.63812 -1.2661,3.6115 -2.61569,6.88005 -2.99909,7.26344 -0.3834,0.3834 -1.71815,-1.97651 -2.9661,-5.24425 -3.52297,-9.22478 -13.07321,-22.91664 -21.07556,-30.21536 -21.30609,-19.43268 -43.79013,-19.66986 -62.10954,-0.65519 -11.15544,11.5788 -16.07209,25.67246 -16.04219,45.98512 0.0506,34.3663 16.49594,66.00665 53.67512,103.2693 13.37482,13.40485 45.20165,41.15558 47.20062,41.15558 0.21797,0 8.12155,-6.29071 17.56354,-13.97936 z m -282.003,43.66686 c -1.37453,-2.23438 -12.04345,-23.46875 -23.7087,-47.1875 -11.66525,-23.71875 -39.6241,-80.25 -62.13078,-125.625 C 39.298924,306.83108 20.289414,267.92014 20.902874,266.92753 c 1.9162,-3.10047 3.50185,-3.32094 126.280956,-17.55852 11.6875,-1.35528 40.375,-4.71167 63.75,-7.45863 48.99539,-5.75778 107.22132,-12.544 145,-16.89973 14.4375,-1.66457 38.625,-4.48181 53.75,-6.2605 l 27.5,-3.234 2.24219,2.76165 c 1.2332,1.51891 1.91439,3.61585 1.51376,4.65986 -0.7853,2.04649 -15.93761,28.54702 -40.84738,71.43978 -8.58413,14.78125 -26.47832,45.71875 -39.76486,68.75 -13.28652,23.03125 -29.07645,50.3125 -35.08871,60.625 -10.53279,18.06632 -54.03486,93.35942 -96.05421,166.25 -18.21908,31.60445 -24.34607,40.625 -27.59354,40.625 -0.5931,0 -2.20296,-1.82813 -3.5775,-4.0625 z m 530.7652,-7.5 c -1.782,-1.38674 -10.66439,-14.69327 -35.42274,-53.06616 -4.08221,-6.32701 -11.91612,-18.42076 -17.40869,-26.875 -44.44181,-68.4055 -54.6863,-84.18256 -60.67591,-93.44411 -3.76068,-5.81503 -11.90011,-18.32765 -18.08761,-27.80586 -6.1875,-9.47818 -14.59745,-22.43918 -18.68878,-28.80222 -4.09131,-6.36304 -13.67008,-21.13165 -21.28616,-32.81915 -7.61606,-11.6875 -17.76861,-27.3063 -22.56122,-34.70844 -4.79261,-7.40213 -18.65716,-28.77713 -30.81012,-47.5 -12.15294,-18.72286 -25.86174,-39.89396 -30.46401,-47.0469 l -8.36772,-13.00534 2.964,-2.31932 c 2.4105,-1.8862 4.36458,-2.19303 10.46401,-1.64303 4.125,0.37197 27.1875,2.07263 51.25,3.77925 24.0625,1.70663 59.16896,4.23292 78.01436,5.61399 18.84539,1.38108 46.40789,3.35388 61.25,4.38399 14.8421,1.03012 37.39189,2.67786 50.11064,3.66164 12.71875,0.98377 44.78125,3.27857 71.25,5.09955 44.3644,3.05213 48.29594,3.50721 50.3125,5.82371 1.20312,1.38208 2.1875,3.27578 2.1875,4.20822 0,0.93246 -3.69345,14.79201 -8.20766,30.79902 -4.51421,16.00701 -10.74199,38.10366 -13.8395,49.10366 -3.09752,11 -8.6518,30.6875 -12.34288,43.75 -3.69108,13.0625 -20.508,72.6875 -37.37093,132.5 -38.4536,136.39414 -33.99529,121.875 -37.42354,121.875 -1.56072,0 -3.7412,-0.70313 -4.84554,-1.5625 z M 49.770844,247.4598 c -2.11517,-3.22816 -2.09595,-3.38001 0.68212,-5.38956 3.97579,-2.87591 25.42936,-16.8141 32.98087,-21.42735 3.4375,-2.09999 12.15625,-7.73194 19.374996,-12.51545 7.21875,-4.78351 15.9375,-10.41205 19.375,-12.50786 3.4375,-2.09582 12.15625,-7.7045 19.375,-12.46374 7.21875,-4.75925 15.9375,-10.38466 19.375,-12.50091 3.4375,-2.11627 15.10352,-9.59757 25.92451,-16.62512 10.82099,-7.02756 36.69599,-23.7438 57.5,-37.1472 20.80401,-13.40341 43.0144,-27.747161 49.3564,-31.875002 6.342,-4.127841 20.27711,-13.130165 30.96693,-20.005165 18.10963,-11.646963 24.10905,-15.514608 55.62716,-35.861141 6.53125,-4.216253 18.21757,-11.794201 25.9696,-16.839886 7.75204,-5.045685 14.90411,-9.1739727 15.89352,-9.1739727 0.98941,0 2.47267,1.2589072 3.29613,2.7975715 1.15218,2.1528587 13.10281,111.2940252 20.43635,186.6383752 l 0.8576,8.81094 -4.1641,2.11862 c -2.85321,1.45168 -16.36282,3.51633 -42.9141,6.5585 -21.3125,2.44194 -52.8125,6.07869 -70,8.08167 -17.1875,2.00298 -84.6875,9.85541 -150,17.44982 -65.3125,7.59441 -120.771956,14.1209 -123.243246,14.50331 -3.87353,0.5994 -4.79343,0.23715 -6.66974,-2.62645 z M 778.43383,222.42136 c -29.75397,-2.2577 -95.338,-7.03177 -187.5,-13.64873 -138.88061,-9.97123 -129.70394,-9.13153 -132.20335,-12.09705 -1.21185,-1.43785 -2.46759,-3.80877 -2.79054,-5.2687 -0.32294,-1.45994 -3.40564,-30.21694 -6.85045,-63.90444 -3.44481,-33.687497 -7.47287,-72.660238 -8.95127,-86.606089 -2.63485,-24.854968 -2.6412,-25.391503 -0.32119,-27.147747 1.30174,-0.985408 3.10911,-1.809542 4.01638,-1.831406 0.90727,-0.02187 15.81352,7.756785 33.125,17.285889 35.9483,19.787736 122.45655,67.197385 134.60042,73.765903 4.46875,2.4171 22.51164,12.30094 40.0953,21.96409 17.58366,9.66315 61.27134,33.60061 97.08374,53.19436 68.2578,37.34535 72.57046,40.20445 67.00489,44.42116 -2.74803,2.08201 -8.44979,2.06258 -37.30893,-0.12724 z"
     id="path4181"
     inkscape:connector-curvature="0"
     inkscape:export-xdpi="90"
     inkscape:export-ydpi="90" />
</svg>
